<svg id="svg" version="1.1" xmlns="http://www.w3.org/2000/svg" xmlns:xlink="http://www.w3.org/1999/xlink" width="400" height="400" viewBox="0, 0, 400,400"><g id="svgg"><path id="path0" d="M123.000 20.530 C 120.615 21.732,120.562 21.739,114.502 21.660 C 108.337 21.581,105.947 22.067,105.004 23.594 C 104.679 24.119,103.200 24.123,103.200 23.600 C 103.200 23.085,102.122 23.079,101.805 23.592 C 101.672 23.807,101.743 24.662,101.964 25.492 C 102.185 26.321,102.733 28.575,103.183 30.500 C 104.202 34.867,105.365 39.810,106.382 44.100 C 108.525 53.142,108.529 53.163,108.004 53.795 C 107.728 54.128,107.209 54.401,106.851 54.401 C 105.749 54.404,103.601 55.945,103.189 57.028 C 102.304 59.357,103.935 61.244,107.583 62.110 C 109.873 62.654,109.778 62.426,110.197 68.397 C 110.436 71.807,110.761 72.719,111.561 72.224 C 111.853 72.044,111.908 70.422,111.734 67.179 C 111.496 62.760,111.531 62.400,112.192 62.400 C 114.886 62.400,118.400 60.029,118.400 58.212 C 118.400 56.230,114.202 53.600,111.038 53.600 C 110.687 53.600,110.400 53.515,110.400 53.410 C 110.400 53.306,110.049 51.821,109.620 50.110 C 107.141 40.226,107.131 40.468,110.065 39.249 C 111.844 38.509,112.898 38.400,118.258 38.400 C 123.659 38.400,124.625 38.298,126.184 37.566 C 128.900 36.289,128.970 36.068,127.553 33.232 C 126.372 30.868,126.314 30.535,126.420 26.671 C 126.648 18.307,126.816 18.608,123.000 20.530 M114.887 56.457 C 117.072 57.320,116.684 59.136,114.083 60.223 C 110.758 61.612,104.800 60.298,104.800 58.175 C 104.800 57.093,106.499 56.000,108.180 56.000 C 109.626 56.000,109.443 56.551,107.800 57.146 C 104.770 58.241,106.638 59.422,111.317 59.369 C 114.782 59.329,116.033 58.451,114.070 57.436 C 113.393 57.086,112.471 56.800,112.020 56.800 C 111.193 56.800,110.957 56.376,111.488 55.845 C 111.801 55.533,113.170 55.779,114.887 56.457 M113.787 88.422 C 113.484 88.911,113.744 89.899,115.771 95.972 C 117.017 99.702,117.753 100.710,118.262 99.383 C 118.501 98.759,118.088 97.052,117.201 95.000 C 117.011 94.560,116.438 92.861,115.928 91.224 C 115.025 88.329,114.372 87.474,113.787 88.422 M121.356 108.971 C 121.141 109.531,125.179 117.668,126.211 118.755 C 128.905 121.590,126.546 114.591,123.092 109.500 C 122.265 108.282,121.688 108.106,121.356 108.971 M132.595 127.207 C 132.316 127.659,133.411 129.591,134.979 131.414 C 135.540 132.066,135.999 132.731,136.000 132.891 C 136.001 133.546,137.965 134.459,138.605 134.101 C 139.165 133.788,139.058 133.505,137.810 132.012 C 137.016 131.062,135.804 129.501,135.116 128.542 C 133.884 126.827,133.090 126.407,132.595 127.207 M146.589 143.218 C 146.321 143.652,147.399 145.599,147.909 145.602 C 148.069 145.603,148.740 146.103,149.400 146.713 C 152.050 149.161,155.295 151.588,155.637 151.377 C 156.326 150.951,155.996 149.912,154.900 149.058 C 154.295 148.587,152.416 146.986,150.725 145.501 C 147.617 142.771,147.056 142.461,146.589 143.218 M168.400 160.194 C 168.400 160.514,173.128 162.800,173.789 162.800 C 174.855 162.800,174.449 161.618,173.100 160.796 C 171.956 160.098,168.400 159.643,168.400 160.194 M183.000 166.000 C 182.478 166.845,185.618 168.371,191.572 170.163 C 195.360 171.303,195.386 169.547,191.600 168.264 C 190.610 167.928,188.541 167.192,187.002 166.627 C 183.917 165.495,183.366 165.409,183.000 166.000 M158.454 172.845 C 128.282 174.343,120.300 184.221,119.376 221.200 C 119.045 234.460,119.702 233.186,113.185 233.194 C 107.396 233.201,105.585 233.821,103.423 236.536 L 102.200 238.072 102.067 244.570 C 101.863 254.518,101.441 253.798,112.228 261.908 L 119.000 267.000 119.282 277.600 C 119.998 304.529,123.396 314.802,133.652 321.031 C 136.827 322.960,136.800 322.869,136.800 331.594 C 136.800 340.848,137.397 342.387,141.687 344.179 C 144.326 345.281,159.292 345.072,161.615 343.900 C 165.060 342.163,166.000 340.038,166.000 333.988 C 166.000 331.170,166.109 328.581,166.243 328.233 C 166.491 327.586,208.125 327.213,209.767 327.843 C 210.296 328.046,210.400 328.884,210.402 332.943 C 210.407 343.542,211.920 344.777,224.913 344.791 C 238.585 344.806,239.600 343.879,239.600 331.384 C 239.600 322.649,239.431 323.192,242.847 320.941 C 253.115 314.177,256.421 304.167,257.030 278.000 C 257.151 272.830,257.333 268.188,257.436 267.684 C 257.563 267.062,259.836 265.119,264.512 261.632 C 274.615 254.098,274.401 254.439,274.398 245.913 C 274.394 235.165,272.677 233.225,263.149 233.209 C 256.827 233.198,257.354 234.117,257.070 222.600 C 256.107 183.586,248.619 174.357,216.668 172.806 C 207.222 172.347,167.940 172.374,158.454 172.845 M235.000 189.658 C 244.349 192.555,245.186 195.554,245.190 226.200 C 245.194 259.315,244.270 261.592,230.261 263.001 C 223.659 263.664,222.281 263.479,223.645 262.115 C 224.149 261.611,223.796 260.798,223.076 260.804 C 222.814 260.806,221.796 261.447,220.813 262.229 L 219.025 263.649 183.013 263.479 C 135.676 263.254,135.835 263.281,132.674 254.908 C 131.675 252.261,131.090 208.070,131.960 200.959 C 132.853 193.657,136.545 190.136,144.273 189.214 C 149.775 188.557,232.759 188.964,235.000 189.658 M235.784 251.000 C 231.506 254.317,230.698 255.243,231.596 255.797 C 231.975 256.032,232.994 255.361,237.361 252.000 C 239.667 250.226,241.297 248.481,241.039 248.063 C 240.581 247.321,240.387 247.429,235.784 251.000 M160.778 287.189 C 166.014 289.860,166.011 296.759,160.772 299.414 C 158.105 300.766,144.966 300.912,142.125 299.622 C 136.562 297.097,136.605 289.939,142.200 287.029 C 144.186 285.996,158.684 286.121,160.778 287.189 M233.874 286.825 C 239.527 288.956,239.764 297.129,234.246 299.635 C 231.655 300.811,218.199 300.761,215.729 299.566 C 210.343 296.958,210.586 289.034,216.120 286.805 C 217.390 286.294,232.510 286.310,233.874 286.825 M184.628 334.355 C 184.144 335.139,186.037 344.403,186.907 345.505 C 187.695 346.502,188.351 345.333,187.926 343.688 C 187.715 342.870,187.270 340.850,186.937 339.200 C 185.941 334.258,185.395 333.113,184.628 334.355 M191.003 354.795 C 190.256 356.003,197.231 365.204,198.252 364.357 C 198.834 363.874,198.324 362.674,196.952 361.297 C 196.676 361.020,195.516 359.355,194.373 357.597 C 192.414 354.582,191.569 353.879,191.003 354.795 M332.677 365.056 C 331.519 366.215,332.471 366.420,338.500 366.310 C 343.606 366.218,344.600 366.102,344.600 365.600 C 344.600 364.962,333.287 364.447,332.677 365.056 M354.153 365.379 C 353.776 366.362,353.816 366.371,360.068 366.655 C 365.965 366.923,367.229 366.670,366.026 365.465 C 365.209 364.648,354.463 364.570,354.153 365.379 M313.605 366.142 C 310.085 366.764,309.585 368.012,312.871 367.978 C 317.205 367.933,323.000 367.026,323.000 366.393 C 323.000 365.625,317.377 365.475,313.605 366.142 M375.388 366.419 C 374.845 367.299,376.005 367.719,380.077 368.119 C 386.247 368.724,387.362 368.703,387.505 367.980 C 387.690 367.044,375.938 365.530,375.388 366.419 M296.200 368.470 C 291.901 369.244,289.851 369.821,289.696 370.300 C 289.415 371.166,290.778 371.332,293.737 370.793 C 300.724 369.520,301.399 369.336,301.529 368.665 C 301.677 367.904,299.740 367.833,296.200 368.470 M396.800 369.413 C 396.800 370.043,397.014 370.161,398.900 370.574 C 399.873 370.787,400.000 370.699,400.000 369.808 C 400.000 368.899,399.843 368.800,398.400 368.800 C 397.230 368.800,396.800 368.965,396.800 369.413 M205.734 370.227 C 205.451 370.966,205.797 371.363,207.636 372.405 C 211.054 374.343,214.950 376.035,215.737 375.923 C 217.633 375.653,216.389 374.670,211.588 372.646 C 210.605 372.231,209.440 371.601,209.000 371.246 C 207.003 369.634,206.073 369.344,205.734 370.227 M277.600 372.005 C 276.309 372.300,273.449 372.880,270.004 373.543 C 269.138 373.710,268.558 374.075,268.475 374.506 C 268.319 375.314,269.940 375.449,272.354 374.828 C 273.149 374.624,274.880 374.248,276.200 373.993 C 277.520 373.739,279.017 373.449,279.527 373.351 C 280.137 373.233,280.408 372.939,280.322 372.490 C 280.167 371.686,279.505 371.568,277.600 372.005 M253.600 376.453 C 252.390 376.638,250.535 376.894,249.477 377.023 C 248.284 377.167,247.464 377.489,247.318 377.868 C 247.037 378.601,247.958 379.283,248.800 378.965 C 249.130 378.840,251.020 378.569,253.000 378.363 C 257.598 377.884,258.969 377.506,259.129 376.671 C 259.276 375.911,257.580 375.844,253.600 376.453 M225.758 377.669 C 225.019 378.864,236.565 380.395,237.707 379.253 C 238.499 378.461,237.493 378.064,234.099 377.831 C 232.174 377.699,229.573 377.506,228.319 377.403 C 226.862 377.284,225.936 377.380,225.758 377.669 " stroke="none" fill="#1c2449" fill-rule="evenodd"></path><path id="path1" d="M0.000 200.000 L 0.000 400.000 200.000 400.000 L 400.000 400.000 400.000 385.683 L 400.000 371.366 398.200 370.884 C 395.462 370.152,395.786 367.666,398.560 368.116 L 400.000 368.350 400.000 184.175 L 400.000 0.000 200.000 0.000 L 0.000 0.000 0.000 200.000 M126.825 19.875 C 127.157 20.881,127.231 22.691,127.057 25.575 C 126.776 30.250,127.080 31.923,128.625 34.199 C 130.742 37.319,126.956 38.999,117.800 39.003 C 109.415 39.007,107.413 39.846,108.352 42.961 C 108.557 43.642,109.114 45.910,109.590 48.000 C 110.066 50.090,110.540 52.100,110.644 52.468 C 110.764 52.889,111.455 53.239,112.517 53.416 C 119.743 54.623,120.926 60.242,114.400 62.363 L 112.200 63.078 112.080 65.330 C 112.014 66.569,112.122 68.469,112.318 69.552 C 112.723 71.775,112.360 72.800,111.170 72.800 C 110.033 72.800,109.601 71.286,109.594 67.274 C 109.587 63.255,109.478 63.001,107.600 62.607 C 101.399 61.306,100.651 56.496,106.264 54.013 C 108.138 53.184,108.183 53.099,107.635 51.360 C 107.434 50.722,106.899 48.580,106.447 46.600 C 105.994 44.620,105.169 41.065,104.612 38.700 C 100.775 22.398,101.032 23.826,101.799 23.058 C 102.315 22.542,102.587 22.510,103.201 22.893 C 103.821 23.281,104.243 23.214,105.481 22.533 C 108.313 20.974,110.811 20.593,114.702 21.129 C 118.679 21.676,121.013 21.266,124.078 19.482 C 126.325 18.174,126.260 18.165,126.825 19.875 M105.467 57.467 C 105.039 57.894,105.159 58.800,105.643 58.800 C 105.886 58.800,105.986 58.542,105.865 58.226 C 105.744 57.910,105.860 57.564,106.122 57.457 C 106.413 57.339,106.430 57.251,106.167 57.232 C 105.928 57.214,105.613 57.320,105.467 57.467 M115.575 88.500 C 118.105 94.861,119.179 99.769,118.129 100.172 C 116.895 100.645,114.387 95.200,113.389 89.881 C 112.963 87.611,114.768 86.470,115.575 88.500 M215.903 96.608 C 223.904 98.984,222.450 110.298,214.040 111.106 C 205.453 111.931,202.742 98.691,211.048 96.493 C 213.232 95.915,213.599 95.924,215.903 96.608 M175.433 100.454 C 175.587 100.703,175.823 111.278,175.957 123.954 L 176.200 147.000 188.600 147.200 L 201.000 147.400 201.000 153.400 L 201.000 159.400 197.400 159.658 C 195.420 159.799,189.215 159.934,183.611 159.958 C 174.159 159.997,173.488 160.046,174.334 160.639 C 175.360 161.357,175.370 162.686,174.354 163.323 C 173.863 163.630,172.830 163.281,170.041 161.864 C 167.017 160.328,165.992 160.000,164.210 160.000 C 163.020 160.000,161.966 159.865,161.867 159.700 C 161.768 159.535,161.554 146.035,161.392 129.700 L 161.097 100.000 168.125 100.000 C 172.934 100.000,175.241 100.143,175.433 100.454 M285.176 102.788 C 286.399 103.001,288.713 103.392,290.318 103.656 C 293.759 104.221,293.614 104.072,293.186 106.601 C 293.000 107.700,292.646 110.220,292.400 112.200 C 292.154 114.180,291.794 116.790,291.601 118.000 C 291.146 120.846,290.560 124.937,289.996 129.200 C 289.748 131.070,289.377 133.580,289.171 134.778 C 288.541 138.434,288.839 138.280,300.200 129.093 L 304.600 125.536 307.400 125.782 C 308.940 125.918,311.280 126.196,312.600 126.400 C 313.920 126.604,315.951 126.894,317.114 127.043 C 319.962 127.409,319.971 127.398,311.975 133.672 C 308.139 136.682,304.298 139.747,303.441 140.485 L 301.881 141.825 303.580 145.813 C 304.514 148.006,305.733 150.790,306.288 152.000 C 306.843 153.210,307.614 154.920,308.000 155.800 C 308.386 156.680,309.154 158.390,309.706 159.600 C 310.259 160.810,311.111 162.700,311.601 163.800 C 312.090 164.900,312.831 166.555,313.246 167.478 C 314.311 169.848,314.248 170.549,313.000 170.236 C 312.450 170.098,311.145 169.892,310.100 169.778 C 307.637 169.510,302.456 168.794,301.290 168.561 C 300.283 168.360,300.006 167.823,295.843 158.000 C 293.041 151.387,292.069 149.290,291.700 149.062 C 291.155 148.725,286.817 152.374,286.622 153.333 C 286.525 153.810,286.245 155.460,285.999 157.000 C 285.753 158.540,285.382 160.669,285.176 161.731 C 284.969 162.792,284.800 164.078,284.800 164.588 C 284.800 166.036,283.414 166.070,275.409 164.815 C 271.542 164.209,271.367 163.825,272.399 158.200 C 272.601 157.100,272.965 154.760,273.207 153.000 C 273.658 149.727,274.061 146.941,274.800 142.000 C 275.030 140.462,275.390 138.032,275.600 136.600 C 275.810 135.168,276.170 132.738,276.400 131.200 C 277.114 126.426,277.536 123.521,277.997 120.200 C 278.241 118.440,278.603 116.010,278.800 114.800 C 278.997 113.590,279.361 111.160,279.609 109.400 C 280.685 101.750,280.498 101.972,285.176 102.788 M112.184 103.574 C 112.311 103.780,112.599 105.265,112.824 106.874 C 113.508 111.770,113.929 114.848,114.373 118.200 C 114.606 119.960,114.979 122.660,115.200 124.200 C 115.421 125.740,115.794 128.440,116.027 130.200 C 116.260 131.960,116.624 134.660,116.836 136.200 C 119.663 156.769,109.577 168.200,88.600 168.200 C 72.607 168.200,65.351 160.600,62.819 141.200 C 62.182 136.318,61.696 132.659,61.200 129.000 C 60.961 127.240,60.601 124.540,60.399 123.000 C 60.197 121.460,59.852 118.850,59.632 117.200 C 58.603 109.483,58.296 109.978,64.600 109.198 C 66.580 108.953,69.100 108.599,70.200 108.413 C 72.578 108.008,73.094 108.319,73.398 110.340 C 73.859 113.404,74.387 117.118,74.799 120.200 C 75.035 121.960,75.389 124.570,75.586 126.000 C 75.783 127.430,76.137 129.995,76.372 131.700 C 76.608 133.405,76.986 136.195,77.214 137.900 C 78.695 148.973,80.094 152.083,84.648 154.424 C 86.282 155.264,87.080 155.397,90.373 155.381 C 100.277 155.332,104.258 148.747,102.090 136.000 C 101.669 133.525,101.299 130.940,100.400 124.200 C 100.180 122.550,99.826 119.895,99.613 118.300 C 99.102 114.474,98.486 109.498,98.207 106.938 L 97.982 104.876 100.891 104.409 C 102.491 104.153,104.610 103.797,105.600 103.619 C 108.159 103.158,111.911 103.133,112.184 103.574 M125.486 112.800 C 128.067 117.566,128.520 119.311,127.300 119.788 C 126.171 120.229,120.800 111.253,120.800 108.925 C 120.800 106.245,122.858 107.948,125.486 112.800 M219.259 117.500 C 219.427 118.266,218.973 138.592,218.499 151.600 L 218.200 159.800 212.031 159.911 C 208.638 159.972,205.710 159.870,205.524 159.684 C 205.339 159.499,205.374 153.599,205.602 146.574 C 205.830 139.548,206.117 130.200,206.240 125.800 C 206.363 121.400,206.533 117.575,206.619 117.300 C 206.896 116.410,219.064 116.603,219.259 117.500 M238.274 118.082 C 238.748 118.455,238.943 119.172,239.398 122.208 C 239.831 125.097,240.122 125.168,242.380 122.934 C 244.313 121.021,246.025 119.969,249.200 118.741 C 254.799 116.577,263.620 119.082,266.702 123.712 C 269.474 127.878,269.533 129.034,267.975 148.800 C 267.758 151.550,267.439 155.821,267.267 158.291 C 266.887 163.720,267.277 163.315,262.517 163.228 C 256.223 163.112,253.780 162.481,253.885 160.996 C 253.931 160.338,254.157 157.280,254.386 154.200 C 255.829 134.806,255.838 133.804,254.587 131.686 C 251.990 127.290,244.179 127.633,241.140 132.277 C 239.794 134.333,239.333 136.425,238.820 142.800 C 238.581 145.770,238.207 150.000,237.990 152.200 C 237.773 154.400,237.596 157.123,237.598 158.251 C 237.599 159.413,237.383 160.477,237.100 160.705 C 236.575 161.129,227.575 160.735,225.500 160.198 C 224.082 159.831,224.011 162.007,226.403 132.400 C 227.250 121.926,227.642 117.855,227.836 117.541 C 228.106 117.104,237.661 117.600,238.274 118.082 M136.800 129.841 C 140.089 134.122,139.542 133.916,146.584 133.533 C 153.683 133.147,153.284 132.892,153.349 137.869 L 153.400 141.800 150.829 142.208 L 148.257 142.617 152.529 146.356 C 156.821 150.114,157.204 150.636,156.320 151.520 C 155.511 152.329,154.831 152.075,152.512 150.100 C 147.357 145.710,146.000 144.292,146.000 143.297 C 146.000 142.401,145.881 142.333,144.698 142.555 C 143.982 142.690,140.157 142.978,136.198 143.197 C 132.239 143.415,128.319 143.702,127.486 143.834 C 125.091 144.215,124.800 143.712,124.800 139.194 C 124.800 134.544,124.321 134.902,131.019 134.544 C 136.763 134.237,136.598 134.436,134.000 130.961 C 131.685 127.864,131.391 126.384,133.100 126.428 C 133.995 126.451,134.685 127.087,136.800 129.841 M189.200 166.852 C 194.326 168.700,195.649 169.577,194.818 170.578 C 193.392 172.296,181.766 167.829,182.524 165.854 C 182.908 164.854,184.191 165.046,189.200 166.852 M223.400 172.594 C 250.344 176.062,256.435 184.757,257.589 221.400 C 257.777 227.340,257.946 232.222,257.965 232.249 C 257.984 232.276,260.475 232.379,263.500 232.479 C 273.114 232.796,275.200 235.198,275.200 245.947 C 275.200 254.292,274.983 254.631,264.776 262.229 L 258.121 267.183 257.860 270.853 C 257.717 272.872,257.601 276.700,257.603 279.361 C 257.608 288.140,256.784 296.529,255.190 303.906 C 253.647 311.050,248.680 318.186,242.700 321.849 L 240.400 323.258 240.398 330.529 C 240.394 343.972,238.740 345.600,225.089 345.600 C 212.125 345.600,210.079 344.014,209.632 333.616 L 209.400 328.232 188.200 328.245 L 167.000 328.258 166.790 333.829 C 166.409 343.948,164.260 345.588,151.373 345.596 C 137.549 345.604,136.000 344.141,136.000 331.074 L 136.000 323.311 133.500 321.679 C 127.623 317.841,124.524 313.742,122.077 306.571 C 120.925 303.197,120.611 301.722,119.610 295.000 C 119.204 292.275,118.407 275.872,118.402 270.149 L 118.400 267.298 113.900 263.924 C 111.425 262.068,108.047 259.542,106.393 258.310 C 101.771 254.866,101.600 254.414,101.600 245.626 C 101.600 237.648,101.714 237.155,104.066 234.948 C 106.273 232.876,107.018 232.668,112.900 232.477 L 118.400 232.297 118.407 230.249 C 118.425 224.546,119.236 207.450,119.605 205.000 C 120.551 198.717,120.922 196.864,121.804 194.000 C 123.313 189.101,124.973 186.186,128.600 182.071 C 131.694 178.560,139.594 174.638,145.200 173.830 C 146.190 173.687,147.720 173.393,148.600 173.178 C 152.257 172.280,158.498 172.104,188.000 172.067 C 212.585 172.035,219.911 172.144,223.400 172.594 M143.400 190.045 C 132.815 191.578,131.998 194.168,131.998 226.200 C 131.998 253.818,132.487 256.976,137.237 260.024 C 141.208 262.572,140.016 262.500,181.534 262.686 L 219.267 262.855 221.099 261.427 C 222.107 260.642,223.060 260.000,223.217 260.000 C 223.855 260.000,224.450 261.213,224.199 262.004 C 223.934 262.838,223.980 262.844,228.466 262.576 C 238.034 262.003,241.371 260.070,243.264 254.000 L 244.200 251.000 244.200 226.000 L 244.200 201.000 243.268 198.217 C 241.519 192.995,238.720 190.830,232.671 190.019 C 228.837 189.505,146.965 189.529,143.400 190.045 M241.530 248.119 C 241.718 249.113,241.252 249.590,236.549 253.220 C 232.195 256.582,231.484 256.878,230.805 255.609 C 230.302 254.670,230.453 254.504,235.086 250.902 C 236.854 249.527,238.532 248.123,238.815 247.781 C 239.500 246.957,241.353 247.187,241.530 248.119 M141.800 287.944 C 137.382 290.673,137.562 296.772,142.125 298.937 C 144.378 300.007,158.324 299.905,160.574 298.803 C 164.950 296.660,165.208 290.601,161.033 288.020 C 159.102 286.827,143.707 286.766,141.800 287.944 M215.159 288.108 C 211.566 290.508,211.495 295.713,215.016 298.485 C 216.687 299.801,232.105 300.109,234.400 298.873 C 238.588 296.617,238.759 290.471,234.704 287.998 C 232.581 286.704,217.131 286.791,215.159 288.108 M186.791 336.300 C 187.056 337.785,187.636 340.397,188.081 342.105 C 188.915 345.305,188.732 346.400,187.365 346.400 C 186.374 346.400,184.838 341.766,184.156 336.717 C 183.576 332.425,186.031 332.036,186.791 336.300 M192.679 354.500 C 193.129 354.995,194.012 356.210,194.640 357.200 C 195.269 358.190,196.560 359.971,197.510 361.159 C 199.398 363.520,199.535 364.537,197.988 364.718 C 195.682 364.988,189.389 355.571,190.880 354.080 C 191.540 353.420,191.739 353.466,192.679 354.500 M344.770 364.745 C 345.763 366.599,344.584 367.000,338.132 367.000 L 332.200 367.000 332.076 365.923 C 331.944 364.785,331.825 364.842,335.600 364.262 C 339.032 363.736,344.381 364.017,344.770 364.745 M364.521 364.651 C 366.364 364.904,366.971 365.489,366.545 366.600 C 366.110 367.732,354.169 367.305,353.722 366.141 C 353.074 364.453,358.058 363.765,364.521 364.651 M323.353 365.692 C 324.216 367.071,322.827 367.705,318.222 368.034 C 315.904 368.200,313.458 368.456,312.787 368.603 C 310.928 369.011,309.405 367.062,310.874 366.154 C 312.548 365.120,322.758 364.742,323.353 365.692 M383.600 366.219 C 387.674 366.578,388.000 366.694,388.000 367.781 C 388.000 369.406,387.147 369.457,378.528 368.347 C 375.204 367.919,374.555 367.505,375.076 366.147 C 375.340 365.459,374.930 365.456,383.600 366.219 M301.829 367.771 C 303.076 369.019,302.007 370.049,299.058 370.441 C 297.926 370.591,295.420 370.947,293.489 371.231 C 290.446 371.680,289.898 371.670,289.385 371.156 C 288.120 369.892,289.486 369.178,295.026 368.210 C 301.535 367.071,301.153 367.096,301.829 367.771 M208.687 370.364 C 210.288 371.524,214.474 373.600,215.212 373.600 C 216.574 373.600,217.565 375.776,216.470 376.363 C 215.046 377.125,204.800 372.131,204.800 370.675 C 204.800 368.963,206.559 368.822,208.687 370.364 M280.724 372.478 C 280.866 373.708,280.950 373.677,273.472 375.119 C 268.717 376.036,268.000 375.966,268.000 374.584 C 268.000 373.497,268.193 373.420,274.000 372.181 C 279.482 371.011,280.561 371.059,280.724 372.478 M259.480 375.956 C 260.304 377.276,259.248 378.120,256.346 378.459 C 248.978 379.321,246.942 379.347,246.649 378.584 C 246.170 377.336,247.229 376.898,252.400 376.204 C 255.150 375.835,257.475 375.459,257.566 375.367 C 257.989 374.944,259.053 375.272,259.480 375.956 M233.400 377.330 C 238.128 377.793,238.200 377.815,238.200 378.800 L 238.200 379.800 233.800 379.786 C 226.704 379.763,224.762 379.208,225.455 377.400 C 225.729 376.687,226.749 376.678,233.400 377.330 " stroke="none" fill="#fbfbfb" fill-rule="evenodd"></path><path id="path2" d="M114.100 38.687 C 114.705 38.778,115.695 38.778,116.300 38.687 C 116.905 38.595,116.410 38.520,115.200 38.520 C 113.990 38.520,113.495 38.595,114.100 38.687 M110.501 52.800 C 110.590 53.130,111.099 53.433,111.631 53.474 C 112.395 53.532,112.431 53.501,111.800 53.328 C 111.360 53.207,110.851 52.903,110.670 52.654 C 110.451 52.354,110.394 52.404,110.501 52.800 M111.800 56.400 C 111.936 56.620,112.397 56.800,112.824 56.800 C 113.251 56.800,113.600 56.620,113.600 56.400 C 113.600 56.180,113.139 56.000,112.576 56.000 C 111.996 56.000,111.660 56.173,111.800 56.400 M114.877 57.574 C 115.143 58.000,115.513 58.254,115.699 58.139 C 116.081 57.903,115.297 56.800,114.748 56.800 C 114.553 56.800,114.611 57.148,114.877 57.574 M105.818 58.770 C 105.551 59.203,106.637 60.121,107.196 59.935 C 107.428 59.857,107.261 59.487,106.823 59.113 C 106.386 58.738,105.933 58.584,105.818 58.770 M108.200 62.672 C 108.640 62.793,109.149 63.097,109.330 63.346 C 109.549 63.646,109.606 63.596,109.499 63.200 C 109.410 62.870,108.901 62.567,108.369 62.526 C 107.605 62.468,107.569 62.499,108.200 62.672 M113.354 88.177 C 113.232 88.494,113.217 89.079,113.320 89.477 C 113.438 89.931,113.524 89.774,113.554 89.053 C 113.594 88.058,113.730 87.932,114.588 88.096 C 115.131 88.199,115.481 88.130,115.364 87.942 C 115.020 87.386,113.593 87.552,113.354 88.177 M211.048 96.493 C 207.512 97.429,205.494 101.075,206.170 105.305 C 207.408 113.042,219.691 112.947,221.002 105.191 C 221.995 99.311,216.975 94.925,211.048 96.493 M161.392 129.700 C 161.554 146.035,161.768 159.535,161.867 159.700 C 161.966 159.865,163.038 160.000,164.250 160.000 C 165.461 160.000,166.801 160.186,167.226 160.414 C 167.835 160.740,168.000 160.697,168.000 160.214 C 168.000 159.180,171.466 159.424,173.600 160.608 C 174.997 161.382,175.188 161.426,174.456 160.803 L 173.511 160.000 183.656 159.958 C 189.235 159.934,195.420 159.799,197.400 159.658 L 201.000 159.400 201.000 153.400 L 201.000 147.400 188.600 147.200 L 176.200 147.000 175.957 123.954 C 175.823 111.278,175.587 100.703,175.433 100.454 C 175.241 100.143,172.934 100.000,168.125 100.000 L 161.097 100.000 161.392 129.700 M280.469 104.300 C 280.244 105.345,279.856 107.640,279.609 109.400 C 279.361 111.160,278.997 113.590,278.800 114.800 C 278.603 116.010,278.241 118.440,277.997 120.200 C 277.536 123.521,277.114 126.426,276.400 131.200 C 276.170 132.738,275.810 135.168,275.600 136.600 C 275.390 138.032,275.030 140.462,274.800 142.000 C 274.061 146.941,273.658 149.727,273.207 153.000 C 272.965 154.760,272.601 157.100,272.399 158.200 C 271.367 163.825,271.542 164.209,275.409 164.815 C 283.414 166.070,284.800 166.036,284.800 164.588 C 284.800 164.078,284.969 162.792,285.176 161.731 C 285.382 160.669,285.753 158.540,285.999 157.000 C 286.245 155.460,286.525 153.810,286.622 153.333 C 286.817 152.374,291.155 148.725,291.700 149.062 C 292.069 149.290,293.041 151.387,295.843 158.000 C 300.006 167.823,300.283 168.360,301.290 168.561 C 302.456 168.794,307.637 169.510,310.100 169.778 C 311.145 169.892,312.450 170.098,313.000 170.236 C 314.248 170.549,314.311 169.848,313.246 167.478 C 312.831 166.555,312.090 164.900,311.601 163.800 C 311.111 162.700,310.259 160.810,309.706 159.600 C 309.154 158.390,308.386 156.680,308.000 155.800 C 307.614 154.920,306.843 153.210,306.288 152.000 C 305.733 150.790,304.514 148.006,303.580 145.813 L 301.881 141.825 303.441 140.485 C 304.298 139.747,308.139 136.682,311.975 133.672 C 319.971 127.398,319.962 127.409,317.114 127.043 C 315.951 126.894,313.920 126.604,312.600 126.400 C 311.280 126.196,308.940 125.918,307.400 125.782 L 304.600 125.536 300.200 129.093 C 288.839 138.280,288.541 138.434,289.171 134.778 C 289.377 133.580,289.748 131.070,289.996 129.200 C 290.560 124.937,291.146 120.846,291.601 118.000 C 291.794 116.790,292.154 114.180,292.400 112.200 C 292.646 110.220,293.000 107.700,293.186 106.601 C 293.614 104.072,293.759 104.221,290.318 103.656 C 288.713 103.392,286.399 103.001,285.176 102.788 C 281.135 102.083,280.934 102.148,280.469 104.300 M105.600 103.619 C 104.610 103.797,102.491 104.153,100.891 104.409 L 97.982 104.876 98.207 106.938 C 98.486 109.498,99.102 114.474,99.613 118.300 C 99.826 119.895,100.180 122.550,100.400 124.200 C 101.299 130.940,101.669 133.525,102.090 136.000 C 104.258 148.747,100.277 155.332,90.373 155.381 C 87.080 155.397,86.282 155.264,84.648 154.424 C 80.094 152.083,78.695 148.973,77.214 137.900 C 76.986 136.195,76.608 133.405,76.372 131.700 C 76.137 129.995,75.783 127.430,75.586 126.000 C 75.389 124.570,75.035 121.960,74.799 120.200 C 74.387 117.118,73.859 113.404,73.398 110.340 C 73.094 108.319,72.578 108.008,70.200 108.413 C 69.100 108.599,66.580 108.953,64.600 109.198 C 58.296 109.978,58.603 109.483,59.632 117.200 C 59.852 118.850,60.197 121.460,60.399 123.000 C 60.601 124.540,60.961 127.240,61.200 129.000 C 61.696 132.659,62.182 136.318,62.819 141.200 C 65.351 160.600,72.607 168.200,88.600 168.200 C 109.577 168.200,119.663 156.769,116.836 136.200 C 116.624 134.660,116.260 131.960,116.027 130.200 C 115.794 128.440,115.421 125.740,115.200 124.200 C 114.979 122.660,114.606 119.960,114.373 118.200 C 113.929 114.848,113.508 111.770,112.824 106.874 C 112.266 102.875,111.542 102.549,105.600 103.619 M206.619 117.300 C 206.533 117.575,206.363 121.400,206.240 125.800 C 206.117 130.200,205.830 139.548,205.602 146.574 C 205.374 153.599,205.339 159.499,205.524 159.684 C 205.710 159.870,208.638 159.972,212.031 159.911 L 218.200 159.800 218.499 151.600 C 218.973 138.592,219.427 118.266,219.259 117.500 C 219.064 116.603,206.896 116.410,206.619 117.300 M227.836 117.541 C 227.642 117.855,227.250 121.926,226.403 132.400 C 224.972 150.111,224.438 157.221,224.415 158.857 C 224.396 160.205,225.071 160.387,231.600 160.796 C 237.430 161.160,237.601 161.088,237.598 158.251 C 237.596 157.123,237.773 154.400,237.990 152.200 C 238.207 150.000,238.581 145.770,238.820 142.800 C 239.333 136.425,239.794 134.333,241.140 132.277 C 244.179 127.633,251.990 127.290,254.587 131.686 C 255.838 133.804,255.829 134.806,254.386 154.200 C 254.157 157.280,253.931 160.338,253.885 160.996 C 253.780 162.481,256.223 163.112,262.517 163.228 C 267.277 163.315,266.887 163.720,267.267 158.291 C 267.439 155.821,267.758 151.550,267.975 148.800 C 269.533 129.034,269.474 127.878,266.702 123.712 C 263.620 119.082,254.799 116.577,249.200 118.741 C 246.025 119.969,244.313 121.021,242.380 122.934 C 240.122 125.168,239.831 125.097,239.398 122.208 C 238.943 119.172,238.748 118.455,238.274 118.082 C 237.661 117.600,228.106 117.104,227.836 117.541 M139.452 133.791 C 139.744 134.553,137.223 134.663,136.480 133.920 C 136.184 133.624,136.000 133.601,136.000 133.859 C 136.000 134.114,134.054 134.382,131.019 134.544 C 124.321 134.902,124.800 134.544,124.800 139.194 C 124.800 144.580,123.462 144.288,141.395 142.820 C 144.664 142.552,145.866 142.580,146.089 142.930 C 146.312 143.281,146.389 143.273,146.394 142.900 C 146.405 141.997,147.736 142.376,149.181 143.694 C 150.474 144.872,150.501 144.881,149.491 143.794 L 148.381 142.600 150.891 142.200 L 153.400 141.800 153.349 137.869 C 153.284 132.892,153.683 133.147,146.584 133.533 C 143.293 133.712,140.289 133.706,139.909 133.520 C 139.380 133.261,139.273 133.324,139.452 133.791 M152.400 149.725 C 152.400 149.794,152.985 150.379,153.700 151.025 L 155.000 152.200 153.825 150.900 C 152.730 149.688,152.400 149.416,152.400 149.725 M129.178 181.500 L 127.800 183.000 129.300 181.622 C 130.696 180.338,130.984 180.000,130.678 180.000 C 130.612 180.000,129.937 180.675,129.178 181.500 M246.400 180.925 C 246.400 180.994,246.985 181.579,247.700 182.225 L 249.000 183.400 247.825 182.100 C 246.730 180.888,246.400 180.616,246.400 180.925 M118.893 213.600 C 118.893 214.370,118.975 214.685,119.076 214.300 C 119.176 213.915,119.176 213.285,119.076 212.900 C 118.975 212.515,118.893 212.830,118.893 213.600 M118.546 228.200 C 118.547 230.400,118.614 231.249,118.695 230.087 C 118.776 228.924,118.776 227.124,118.693 226.087 C 118.611 225.049,118.545 226.000,118.546 228.200 M257.752 231.000 L 257.800 232.600 262.600 232.621 L 267.400 232.642 262.723 232.508 L 258.047 232.375 257.876 230.888 L 257.705 229.400 257.752 231.000 M111.300 232.696 C 112.565 232.775,114.635 232.775,115.900 232.696 C 117.165 232.616,116.130 232.551,113.600 232.551 C 111.070 232.551,110.035 232.616,111.300 232.696 M274.958 245.800 C 274.958 248.880,275.021 250.087,275.097 248.482 C 275.173 246.878,275.173 244.358,275.096 242.882 C 275.019 241.407,274.957 242.720,274.958 245.800 M240.175 250.100 L 239.000 251.400 240.300 250.225 C 241.015 249.579,241.600 248.994,241.600 248.925 C 241.600 248.616,241.270 248.888,240.175 250.100 M231.062 256.100 C 231.164 256.265,231.586 256.400,232.000 256.400 C 232.414 256.400,232.836 256.265,232.938 256.100 C 233.040 255.935,232.618 255.800,232.000 255.800 C 231.382 255.800,230.960 255.935,231.062 256.100 M172.500 263.100 C 181.025 263.160,194.975 263.160,203.500 263.100 C 212.025 263.040,205.050 262.990,188.000 262.990 C 170.950 262.990,163.975 263.040,172.500 263.100 M118.553 272.200 C 118.553 274.840,118.618 275.868,118.697 274.484 C 118.775 273.101,118.774 270.941,118.695 269.684 C 118.616 268.428,118.552 269.560,118.553 272.200 M257.724 269.800 C 257.726 271.120,257.801 271.612,257.890 270.893 C 257.979 270.174,257.977 269.094,257.886 268.493 C 257.795 267.892,257.722 268.480,257.724 269.800 M118.893 286.400 C 118.893 287.170,118.975 287.485,119.076 287.100 C 119.176 286.715,119.176 286.085,119.076 285.700 C 118.975 285.315,118.893 285.630,118.893 286.400 M147.680 299.898 C 149.594 299.971,152.834 299.971,154.880 299.898 C 156.926 299.826,155.360 299.766,151.400 299.765 C 147.440 299.765,145.766 299.824,147.680 299.898 M221.500 299.898 C 223.535 299.971,226.865 299.971,228.900 299.898 C 230.935 299.825,229.270 299.766,225.200 299.766 C 221.130 299.766,219.465 299.825,221.500 299.898 M181.325 328.299 C 185.024 328.366,190.964 328.365,194.525 328.299 C 198.086 328.233,195.060 328.179,187.800 328.179 C 180.540 328.179,177.626 328.233,181.325 328.299 M336.900 364.276 C 337.285 364.376,337.915 364.376,338.300 364.276 C 338.685 364.175,338.370 364.093,337.600 364.093 C 336.830 364.093,336.515 364.175,336.900 364.276 M320.900 365.076 C 321.285 365.176,321.915 365.176,322.300 365.076 C 322.685 364.975,322.370 364.893,321.600 364.893 C 320.830 364.893,320.515 364.975,320.900 365.076 M339.300 367.087 C 339.905 367.178,340.895 367.178,341.500 367.087 C 342.105 366.995,341.610 366.920,340.400 366.920 C 339.190 366.920,338.695 366.995,339.300 367.087 M397.300 368.276 C 397.685 368.376,398.315 368.376,398.700 368.276 C 399.085 368.175,398.770 368.093,398.000 368.093 C 397.230 368.093,396.915 368.175,397.300 368.276 M385.105 369.083 C 385.602 369.179,386.322 369.175,386.705 369.075 C 387.087 368.975,386.680 368.896,385.800 368.901 C 384.920 368.905,384.607 368.987,385.105 369.083 M205.280 369.680 C 204.608 370.352,204.682 371.009,205.500 371.651 C 206.133 372.148,206.148 372.134,205.655 371.505 C 204.947 370.602,205.311 369.708,206.476 369.485 C 207.284 369.331,207.297 369.302,206.580 369.254 C 206.129 369.225,205.544 369.416,205.280 369.680 M231.505 377.483 C 232.002 377.579,232.722 377.575,233.105 377.475 C 233.487 377.375,233.080 377.296,232.200 377.301 C 231.320 377.305,231.007 377.387,231.505 377.483 " stroke="none" fill="#bc9c6c" fill-rule="evenodd"></path><path id="path3" d="M156.200 172.367 C 154.880 172.495,164.600 172.547,177.800 172.482 C 191.000 172.418,202.160 172.307,202.600 172.237 C 204.063 172.003,158.642 172.130,156.200 172.367 M205.233 172.151 C 205.325 172.235,209.360 172.397,214.200 172.512 C 219.256 172.632,221.894 172.587,220.400 172.407 C 217.765 172.089,204.927 171.873,205.233 172.151 M149.000 173.221 C 148.472 173.462,149.016 173.504,150.600 173.343 C 151.920 173.209,153.075 173.032,153.167 172.950 C 153.521 172.631,149.756 172.876,149.000 173.221 M223.233 172.950 C 223.325 173.032,224.480 173.209,225.800 173.343 C 227.384 173.504,227.928 173.462,227.400 173.221 C 226.644 172.876,222.879 172.631,223.233 172.950 M143.000 174.407 C 130.408 177.725,123.149 185.742,120.581 199.166 C 120.261 200.835,120.019 202.650,120.041 203.200 C 120.063 203.750,120.501 202.130,121.014 199.600 C 123.956 185.082,131.340 177.199,144.459 174.572 C 146.296 174.204,147.875 173.835,147.967 173.751 C 148.394 173.363,145.521 173.742,143.000 174.407 M228.400 173.759 C 228.400 173.846,229.589 174.125,231.042 174.378 C 243.668 176.577,251.335 183.842,254.765 196.856 C 255.424 199.355,255.971 201.000,255.981 200.510 C 256.127 193.572,248.898 181.578,242.391 177.963 C 238.018 175.533,228.400 172.643,228.400 173.759 M145.590 189.228 C 136.814 189.956,132.497 193.742,132.169 201.000 L 132.042 203.800 132.443 200.844 C 133.156 195.582,135.712 192.151,140.102 190.560 C 142.730 189.608,228.089 189.116,233.400 190.022 C 239.192 191.011,242.300 193.670,243.425 198.600 C 243.575 199.260,243.781 199.576,243.882 199.302 C 244.306 198.150,242.742 194.913,240.871 193.070 C 238.313 190.550,235.891 189.682,230.080 189.201 C 224.537 188.741,151.172 188.765,145.590 189.228 M244.200 225.636 L 244.200 251.400 243.268 254.183 C 242.132 257.576,240.613 259.575,238.327 260.686 C 235.593 262.015,235.326 262.070,229.000 262.596 C 225.070 262.923,223.897 263.110,225.600 263.137 C 236.765 263.317,241.883 260.810,243.840 254.200 C 244.619 251.569,245.200 206.727,244.516 202.036 C 244.342 200.847,244.200 211.467,244.200 225.636 M256.087 203.200 C 256.083 204.190,256.216 205.990,256.383 207.200 L 256.687 209.400 256.696 206.600 C 256.701 205.060,256.568 203.260,256.400 202.600 C 256.126 201.523,256.094 201.584,256.087 203.200 M131.787 226.200 C 131.787 238.520,131.838 243.618,131.900 237.528 C 131.962 231.439,131.962 221.359,131.900 215.128 C 131.838 208.898,131.787 213.880,131.787 226.200 M119.455 206.488 C 119.316 207.429,119.087 213.510,118.947 220.000 C 118.801 226.748,118.523 232.014,118.297 232.300 C 118.015 232.657,118.088 232.800,118.551 232.800 C 119.125 232.800,119.201 231.980,119.206 225.700 C 119.209 221.795,119.388 215.554,119.604 211.832 C 119.994 205.112,119.941 203.203,119.455 206.488 M257.096 218.000 C 257.211 222.290,257.371 225.875,257.452 225.967 C 257.728 226.278,257.515 215.014,257.200 212.600 C 257.019 211.215,256.975 213.497,257.096 218.000 M105.800 233.715 C 104.920 234.211,103.604 235.505,102.877 236.589 L 101.553 238.561 101.677 246.013 C 101.822 254.783,101.789 254.707,107.108 258.672 C 108.808 259.940,110.290 261.080,110.400 261.206 C 110.510 261.332,112.130 262.558,114.000 263.931 C 115.870 265.305,117.686 266.665,118.035 266.955 C 118.579 267.405,118.710 269.265,118.947 279.841 C 119.100 286.638,119.390 292.920,119.592 293.800 C 119.858 294.960,119.895 294.355,119.727 291.600 C 119.600 289.510,119.384 283.128,119.248 277.418 L 119.000 267.037 117.545 266.018 C 109.218 260.192,103.352 255.224,102.544 253.313 C 101.777 251.499,101.784 239.679,102.552 237.887 C 103.302 236.139,105.479 234.145,107.408 233.439 C 108.346 233.096,108.672 232.847,108.200 232.835 C 107.760 232.823,106.680 233.219,105.800 233.715 M268.988 233.438 C 270.874 234.128,272.590 235.670,273.618 237.600 C 274.029 238.370,274.373 238.766,274.382 238.480 C 274.453 236.394,270.373 232.733,268.081 232.828 C 267.707 232.844,268.115 233.118,268.988 233.438 M274.489 245.513 C 274.362 254.835,274.893 253.980,264.300 261.903 C 260.615 264.660,257.600 267.077,257.600 267.275 C 257.600 267.472,258.815 266.675,260.300 265.502 C 261.785 264.330,265.103 261.801,267.674 259.882 C 274.818 254.549,274.907 254.363,274.710 245.200 L 274.578 239.000 274.489 245.513 M132.188 251.424 C 132.398 255.304,135.438 260.800,137.374 260.800 C 137.599 260.800,137.137 260.268,136.348 259.617 C 134.447 258.051,132.919 254.844,132.432 251.400 L 132.036 248.600 132.188 251.424 M138.000 260.966 C 138.000 261.426,140.421 262.398,141.480 262.364 C 142.375 262.336,142.228 262.226,140.749 261.818 C 139.731 261.538,138.696 261.183,138.449 261.030 C 138.202 260.878,138.000 260.849,138.000 260.966 M144.800 262.814 C 147.008 263.122,157.479 263.326,157.167 263.056 C 157.075 262.976,153.760 262.820,149.800 262.709 C 145.758 262.596,143.565 262.642,144.800 262.814 M257.078 282.144 C 256.900 286.074,256.837 289.371,256.937 289.471 C 257.240 289.773,257.669 281.622,257.530 278.200 C 257.434 275.849,257.315 276.895,257.078 282.144 M142.081 287.251 C 139.608 288.476,138.306 290.358,138.163 292.917 L 138.047 295.000 138.342 293.200 C 138.716 290.917,139.220 290.016,140.999 288.455 L 142.428 287.200 151.424 287.200 L 160.421 287.200 162.284 289.063 C 163.993 290.772,164.083 290.816,163.369 289.593 C 161.467 286.336,147.118 284.758,142.081 287.251 M215.679 287.253 C 213.727 288.219,211.980 290.496,212.042 291.993 C 212.076 292.814,212.173 292.713,212.564 291.449 C 212.829 290.595,213.707 289.290,214.517 288.549 L 215.988 287.200 224.916 287.200 C 233.835 287.200,233.846 287.201,235.214 288.210 C 239.118 291.091,238.361 297.203,233.851 299.209 C 232.943 299.613,232.432 299.956,232.716 299.972 C 237.364 300.226,240.061 292.107,236.472 288.669 C 233.850 286.158,219.821 285.202,215.679 287.253 M256.245 294.322 C 256.062 296.370,256.006 298.139,256.121 298.254 C 256.422 298.556,256.895 293.655,256.724 292.000 C 256.638 291.172,256.442 292.121,256.245 294.322 M164.078 293.091 C 164.076 296.318,162.716 298.172,159.400 299.470 C 158.590 299.787,158.442 299.949,158.946 299.970 C 162.096 300.098,165.651 294.785,164.412 291.800 C 164.176 291.232,164.079 291.605,164.078 293.091 M212.041 294.775 C 211.957 296.786,215.388 300.072,217.454 299.959 C 217.877 299.936,217.609 299.730,216.838 299.483 C 216.088 299.244,214.907 298.481,214.213 297.787 C 213.519 297.093,212.756 295.912,212.517 295.162 C 212.145 293.999,212.076 293.943,212.041 294.775 M138.403 295.400 C 138.403 297.061,141.982 300.047,143.884 299.972 C 144.278 299.956,143.892 299.684,143.027 299.367 C 141.190 298.695,140.172 297.864,139.144 296.200 C 138.737 295.540,138.403 295.180,138.403 295.400 M120.042 296.880 C 119.968 298.795,121.458 305.530,122.104 306.200 C 122.353 306.458,122.377 306.245,122.171 305.600 C 121.995 305.050,121.454 302.620,120.968 300.200 C 120.482 297.780,120.065 296.286,120.042 296.880 M255.654 299.400 C 255.619 299.840,255.489 300.650,255.367 301.200 C 255.175 302.063,255.207 302.103,255.598 301.490 C 255.847 301.099,255.977 300.289,255.886 299.690 C 255.778 298.979,255.697 298.879,255.654 299.400 M254.421 304.400 C 252.823 311.295,248.454 317.481,242.500 321.278 L 240.000 322.872 240.090 330.336 L 240.181 337.800 240.299 330.503 L 240.418 323.205 243.203 321.370 C 249.167 317.441,256.299 306.274,255.109 302.730 C 255.011 302.439,254.701 303.190,254.421 304.400 M122.400 307.439 C 122.400 310.410,128.499 318.275,133.208 321.378 L 135.954 323.187 136.077 331.295 L 136.200 339.403 137.351 341.221 C 138.472 342.990,140.674 344.804,141.694 344.796 C 141.972 344.794,141.463 344.351,140.563 343.811 C 139.663 343.271,138.403 342.058,137.763 341.115 L 136.600 339.400 136.465 331.114 L 136.330 322.828 133.794 321.226 C 129.201 318.325,124.277 312.285,123.136 308.153 C 122.738 306.713,122.400 306.385,122.400 307.439 M166.667 327.867 C 166.520 328.013,166.396 330.128,166.390 332.567 C 166.376 339.434,165.405 341.810,161.762 343.893 C 160.903 344.385,160.488 344.790,160.841 344.793 C 164.235 344.828,166.550 340.418,166.738 333.559 L 166.890 328.033 169.745 327.896 L 172.600 327.759 169.767 327.679 C 168.208 327.636,166.813 327.720,166.667 327.867 M206.500 327.892 L 209.600 328.032 209.600 332.386 C 209.600 343.488,212.061 345.600,225.000 345.600 C 235.080 345.600,240.000 343.416,240.000 338.941 C 240.000 338.557,239.528 339.190,238.951 340.348 C 236.981 344.301,236.163 344.578,226.031 344.724 C 211.866 344.928,210.600 344.005,210.060 333.074 L 209.800 327.800 206.600 327.776 L 203.400 327.752 206.500 327.892 M143.400 345.200 C 144.060 345.368,147.570 345.505,151.200 345.505 C 154.830 345.505,158.340 345.368,159.000 345.200 C 159.660 345.032,156.150 344.895,151.200 344.895 C 146.250 344.895,142.740 345.032,143.400 345.200 " stroke="none" fill="#747c93" fill-rule="evenodd"></path><path id="path4" d="M123.600 20.000 C 122.830 20.422,122.344 20.774,122.520 20.783 C 122.944 20.805,125.200 19.632,125.200 19.390 C 125.200 19.128,125.177 19.137,123.600 20.000 M126.549 23.800 C 126.539 28.028,126.553 28.101,126.908 25.674 C 127.128 24.164,127.132 22.393,126.918 21.274 C 126.613 19.681,126.557 20.059,126.549 23.800 M109.600 21.200 C 108.925 21.416,109.639 21.518,111.800 21.514 C 114.520 21.509,114.760 21.458,113.400 21.177 C 111.474 20.779,110.905 20.782,109.600 21.200 M105.716 22.617 C 104.280 23.477,103.913 23.552,103.226 23.123 C 102.611 22.739,102.309 22.731,101.952 23.088 C 101.596 23.444,101.688 23.502,102.342 23.331 C 102.841 23.201,103.200 23.294,103.200 23.553 C 103.200 24.110,104.663 24.145,105.002 23.596 C 105.140 23.374,105.915 22.842,106.726 22.414 C 107.537 21.986,108.020 21.629,107.800 21.621 C 107.580 21.614,106.642 22.062,105.716 22.617 M101.656 25.400 C 101.656 25.840,101.811 26.560,102.000 27.000 L 102.344 27.800 102.344 27.000 C 102.344 26.560,102.189 25.840,102.000 25.400 L 101.656 24.600 101.656 25.400 M102.456 28.800 C 102.456 29.130,102.611 29.760,102.800 30.200 C 103.017 30.704,103.144 30.778,103.144 30.400 C 103.144 30.070,102.989 29.440,102.800 29.000 C 102.583 28.496,102.456 28.422,102.456 28.800 M126.406 30.033 C 126.409 30.565,126.589 31.270,126.806 31.600 C 127.082 32.022,127.123 31.785,126.942 30.800 C 126.625 29.075,126.398 28.749,126.406 30.033 M103.256 32.200 C 103.256 32.640,103.411 33.360,103.600 33.800 L 103.944 34.600 103.944 33.800 C 103.944 33.360,103.789 32.640,103.600 32.200 L 103.256 31.400 103.256 32.200 M128.031 34.161 L 128.941 35.723 127.771 36.659 C 126.405 37.752,126.943 37.934,128.347 36.854 C 129.410 36.037,129.312 35.231,127.954 33.600 C 127.207 32.703,127.215 32.761,128.031 34.161 M104.056 35.600 C 104.056 35.930,104.211 36.560,104.400 37.000 C 104.617 37.504,104.744 37.578,104.744 37.200 C 104.744 36.870,104.589 36.240,104.400 35.800 C 104.183 35.296,104.056 35.222,104.056 35.600 M104.834 39.000 C 104.822 39.440,104.987 40.070,105.200 40.400 C 105.714 41.195,105.714 40.196,105.200 39.000 L 104.856 38.200 104.834 39.000 M111.200 38.818 C 110.762 39.115,110.924 39.152,111.800 38.956 C 113.271 38.627,113.590 38.398,112.567 38.406 C 112.145 38.409,111.530 38.595,111.200 38.818 M119.123 38.882 C 120.501 39.133,121.765 39.131,122.723 38.876 C 123.989 38.539,123.685 38.484,120.600 38.489 C 117.077 38.495,117.046 38.503,119.123 38.882 M108.891 39.692 C 108.000 40.122,107.264 41.797,107.752 42.285 C 107.888 42.422,108.000 42.158,108.000 41.700 C 108.000 41.242,108.495 40.497,109.100 40.046 C 110.319 39.136,110.259 39.033,108.891 39.692 M105.656 42.400 C 105.656 42.730,105.811 43.360,106.000 43.800 C 106.217 44.304,106.344 44.378,106.344 44.000 C 106.344 43.670,106.189 43.040,106.000 42.600 C 105.783 42.096,105.656 42.022,105.656 42.400 M108.056 43.600 C 108.056 43.930,108.211 44.560,108.400 45.000 C 108.617 45.504,108.744 45.578,108.744 45.200 C 108.744 44.870,108.589 44.240,108.400 43.800 C 108.183 43.296,108.056 43.222,108.056 43.600 M106.456 45.800 C 106.456 46.240,106.611 46.960,106.800 47.400 L 107.144 48.200 107.144 47.400 C 107.144 46.960,106.989 46.240,106.800 45.800 L 106.456 45.000 106.456 45.800 M108.856 47.000 C 108.856 47.440,109.011 48.160,109.200 48.600 L 109.544 49.400 109.544 48.600 C 109.544 48.160,109.389 47.440,109.200 47.000 L 108.856 46.200 108.856 47.000 M107.256 49.200 C 107.256 49.530,107.411 50.160,107.600 50.600 C 107.817 51.104,107.944 51.178,107.944 50.800 C 107.944 50.470,107.789 49.840,107.600 49.400 C 107.383 48.896,107.256 48.822,107.256 49.200 M109.656 50.400 C 109.656 50.730,109.811 51.360,110.000 51.800 C 110.217 52.304,110.344 52.378,110.344 52.000 C 110.344 51.670,110.189 51.040,110.000 50.600 C 109.783 50.096,109.656 50.022,109.656 50.400 M108.046 52.639 C 108.021 53.100,107.595 53.673,107.100 53.912 C 106.455 54.223,106.385 54.354,106.851 54.373 C 107.732 54.410,108.508 53.402,108.279 52.519 C 108.123 51.916,108.085 51.936,108.046 52.639 M113.000 54.000 C 113.440 54.189,114.070 54.344,114.400 54.344 C 114.778 54.344,114.704 54.217,114.200 54.000 C 113.760 53.811,113.130 53.656,112.800 53.656 C 112.422 53.656,112.496 53.783,113.000 54.000 M115.800 54.855 C 116.240 55.092,117.004 55.761,117.498 56.343 C 117.992 56.924,118.397 57.191,118.398 56.936 C 118.400 56.364,116.115 54.395,115.469 54.412 C 115.211 54.419,115.360 54.618,115.800 54.855 M111.467 55.867 C 111.060 56.273,111.149 56.800,111.624 56.800 C 111.857 56.800,111.944 56.634,111.819 56.430 C 111.693 56.227,111.907 55.978,112.295 55.877 C 112.855 55.731,112.869 55.683,112.367 55.646 C 112.018 55.621,111.613 55.720,111.467 55.867 M105.900 56.629 C 105.295 56.957,104.800 57.428,104.800 57.675 C 104.800 57.929,105.117 57.837,105.531 57.462 C 106.364 56.709,107.214 56.546,106.480 57.280 C 106.216 57.544,106.003 57.949,106.006 58.180 C 106.010 58.461,106.110 58.456,106.306 58.166 C 106.468 57.927,106.960 57.527,107.400 57.278 C 107.840 57.028,107.964 56.819,107.676 56.812 C 107.388 56.805,107.264 56.620,107.400 56.400 C 107.744 55.843,107.194 55.927,105.900 56.629 M113.474 56.550 C 113.348 56.879,113.680 57.290,114.299 57.572 C 115.218 57.991,115.277 57.974,114.818 57.422 C 114.534 57.080,114.482 56.800,114.702 56.800 C 115.405 56.800,116.099 57.966,115.823 58.684 C 115.595 59.277,115.503 59.293,115.185 58.789 C 114.980 58.465,114.796 58.290,114.776 58.400 C 114.755 58.510,114.678 58.915,114.605 59.300 C 114.429 60.218,114.905 60.189,115.774 59.229 C 116.655 58.255,116.313 57.071,114.973 56.461 C 113.713 55.886,113.730 55.885,113.474 56.550 M102.536 57.422 C 102.405 57.764,102.465 58.419,102.669 58.876 C 102.982 59.577,103.040 59.479,103.040 58.254 C 103.040 56.675,102.907 56.456,102.536 57.422 M107.000 59.361 C 107.612 59.830,107.659 59.984,107.200 60.015 C 106.791 60.043,106.855 60.166,107.400 60.400 C 108.836 61.017,113.078 60.865,113.771 60.171 C 114.661 59.282,114.699 59.296,111.500 59.351 C 109.905 59.378,108.060 59.253,107.400 59.074 C 106.263 58.764,106.242 58.779,107.000 59.361 M117.075 60.446 C 116.456 61.081,116.110 61.600,116.305 61.600 C 116.744 61.600,118.601 59.663,118.368 59.447 C 118.276 59.362,117.694 59.811,117.075 60.446 M114.200 62.000 C 113.429 62.331,113.431 62.345,114.276 62.372 C 114.758 62.387,115.264 62.220,115.400 62.000 C 115.692 61.527,115.301 61.527,114.200 62.000 M111.660 65.700 C 111.722 69.107,111.890 68.713,112.087 64.699 C 112.149 63.434,112.065 62.399,111.900 62.399 C 111.735 62.400,111.627 63.885,111.660 65.700 M109.779 67.400 C 109.922 71.910,110.162 72.800,111.235 72.800 C 111.981 72.800,112.765 71.031,112.248 70.515 C 112.112 70.378,112.000 70.646,112.000 71.110 C 112.000 72.084,111.299 72.659,110.764 72.124 C 110.562 71.922,110.230 69.877,110.025 67.578 L 109.653 63.400 109.779 67.400 M115.124 88.600 C 115.326 89.040,115.592 89.670,115.714 90.000 C 115.907 90.518,115.941 90.515,115.968 89.976 C 115.986 89.634,115.720 89.004,115.378 88.576 C 114.766 87.812,114.762 87.813,115.124 88.600 M113.612 90.400 C 113.612 90.730,113.787 91.270,114.000 91.600 C 114.345 92.133,114.388 92.133,114.388 91.600 C 114.388 91.270,114.213 90.730,114.000 90.400 C 113.655 89.867,113.612 89.867,113.612 90.400 M114.412 93.200 C 114.412 93.530,114.587 94.070,114.800 94.400 C 115.145 94.933,115.188 94.933,115.188 94.400 C 115.188 94.070,115.013 93.530,114.800 93.200 C 114.455 92.667,114.412 92.667,114.412 93.200 M121.067 108.267 C 120.677 108.656,120.741 109.916,121.163 110.177 C 121.362 110.300,121.436 110.061,121.328 109.646 C 120.979 108.313,122.061 108.184,123.099 109.435 L 124.065 110.600 123.422 109.300 C 122.825 108.092,121.724 107.609,121.067 108.267 M126.682 116.189 C 127.273 117.393,127.823 118.311,127.905 118.229 C 128.084 118.049,126.067 114.000,125.798 114.000 C 125.694 114.000,126.092 114.985,126.682 116.189 M124.009 115.900 C 124.014 116.065,124.385 116.650,124.833 117.200 L 125.648 118.200 125.014 116.900 C 124.411 115.665,123.989 115.245,124.009 115.900 M125.949 118.900 C 126.556 119.673,127.419 119.816,127.797 119.205 C 127.938 118.977,127.776 118.911,127.416 119.049 C 127.071 119.181,126.477 119.044,126.095 118.745 C 125.466 118.252,125.452 118.267,125.949 118.900 M132.159 126.964 C 131.900 127.637,132.868 129.629,133.842 130.429 C 134.240 130.757,134.065 130.286,133.430 129.323 C 132.274 127.570,132.362 126.592,133.646 126.928 C 134.061 127.036,134.300 126.962,134.177 126.763 C 133.826 126.195,132.399 126.338,132.159 126.964 M135.647 129.300 C 136.370 130.235,137.482 131.609,138.117 132.354 C 139.019 133.413,139.154 133.783,138.736 134.048 C 138.324 134.309,138.362 134.389,138.900 134.394 C 139.285 134.397,139.600 134.243,139.600 134.052 C 139.600 133.660,134.838 127.600,134.530 127.600 C 134.422 127.600,134.924 128.365,135.647 129.300 M134.832 131.900 C 135.895 133.304,136.946 134.400,137.230 134.400 C 137.390 134.400,136.999 133.841,136.360 133.158 C 135.722 132.474,135.200 131.754,135.200 131.558 C 135.200 131.361,134.998 131.200,134.751 131.200 C 134.450 131.200,134.477 131.431,134.832 131.900 M146.244 143.029 C 145.888 143.958,146.486 144.814,148.865 146.777 C 152.889 150.097,152.327 149.313,147.900 145.430 C 146.298 144.025,146.038 143.314,146.995 142.947 C 147.366 142.804,148.758 143.743,150.695 145.442 C 152.403 146.940,154.205 148.519,154.700 148.952 C 155.195 149.385,155.600 149.637,155.600 149.511 C 155.600 149.044,147.628 142.400,147.068 142.400 C 146.748 142.400,146.377 142.683,146.244 143.029 M153.775 150.722 C 155.100 152.163,155.409 152.249,156.252 151.406 C 156.690 150.967,156.738 150.626,156.435 150.106 C 156.064 149.468,156.023 149.484,156.012 150.276 C 155.993 151.632,155.389 151.704,153.934 150.525 L 152.600 149.445 153.775 150.722 M168.000 160.114 C 168.000 160.701,172.830 163.200,173.965 163.200 C 174.749 163.200,175.367 162.194,174.974 161.558 C 174.064 160.085,168.000 158.829,168.000 160.114 M173.100 160.796 C 174.449 161.618,174.855 162.800,173.789 162.800 C 173.128 162.800,168.400 160.514,168.400 160.194 C 168.400 159.643,171.956 160.098,173.100 160.796 M182.900 165.465 C 181.712 165.944,182.930 167.979,184.400 167.971 C 184.730 167.969,184.505 167.699,183.900 167.371 C 182.626 166.680,182.517 166.205,183.500 165.632 C 184.215 165.216,183.803 165.101,182.900 165.465 M189.600 167.600 C 189.930 167.813,190.470 167.988,190.800 167.988 C 191.333 167.988,191.333 167.945,190.800 167.600 C 190.470 167.387,189.930 167.212,189.600 167.212 C 189.067 167.212,189.067 167.255,189.600 167.600 M193.985 169.382 C 194.688 170.229,194.118 170.839,192.875 170.569 C 192.044 170.388,191.936 170.432,192.400 170.762 C 193.262 171.374,194.277 171.297,194.545 170.600 C 194.829 169.858,194.455 168.800,193.908 168.800 C 193.669 168.800,193.700 169.039,193.985 169.382 M190.000 170.000 C 190.330 170.213,190.870 170.388,191.200 170.388 C 191.733 170.388,191.733 170.345,191.200 170.000 C 190.870 169.787,190.330 169.612,190.000 169.612 C 189.467 169.612,189.467 169.655,190.000 170.000 M162.300 172.682 C 162.795 172.778,163.605 172.778,164.100 172.682 C 164.595 172.587,164.190 172.509,163.200 172.509 C 162.210 172.509,161.805 172.587,162.300 172.682 M212.300 172.682 C 212.795 172.778,213.605 172.778,214.100 172.682 C 214.595 172.587,214.190 172.509,213.200 172.509 C 212.210 172.509,211.805 172.587,212.300 172.682 M153.700 173.076 C 154.085 173.176,154.715 173.176,155.100 173.076 C 155.485 172.975,155.170 172.893,154.400 172.893 C 153.630 172.893,153.315 172.975,153.700 173.076 M129.178 182.300 L 127.800 183.800 129.300 182.422 C 130.696 181.138,130.984 180.800,130.678 180.800 C 130.612 180.800,129.937 181.475,129.178 182.300 M147.300 189.076 C 147.685 189.176,148.315 189.176,148.700 189.076 C 149.085 188.975,148.770 188.893,148.000 188.893 C 147.230 188.893,146.915 188.975,147.300 189.076 M227.700 189.076 C 228.085 189.176,228.715 189.176,229.100 189.076 C 229.485 188.975,229.170 188.893,228.400 188.893 C 227.630 188.893,227.315 188.975,227.700 189.076 M244.985 226.200 C 244.985 236.540,245.036 240.827,245.100 235.728 C 245.163 230.628,245.163 222.168,245.100 216.928 C 245.037 211.687,244.985 215.860,244.985 226.200 M119.320 218.000 C 119.320 219.210,119.395 219.705,119.487 219.100 C 119.578 218.495,119.578 217.505,119.487 216.900 C 119.395 216.295,119.320 216.790,119.320 218.000 M257.340 229.200 C 257.340 231.070,257.409 231.835,257.493 230.900 C 257.577 229.965,257.577 228.435,257.493 227.500 C 257.409 226.565,257.340 227.330,257.340 229.200 M111.100 233.096 C 112.475 233.174,114.725 233.174,116.100 233.096 C 117.475 233.018,116.350 232.954,113.600 232.954 C 110.850 232.954,109.725 233.018,111.100 233.096 M260.100 233.096 C 261.365 233.175,263.435 233.175,264.700 233.096 C 265.965 233.016,264.930 232.951,262.400 232.951 C 259.870 232.951,258.835 233.016,260.100 233.096 M236.480 249.964 C 231.981 253.644,231.450 254.312,235.524 251.166 C 240.503 247.322,240.365 247.404,240.919 247.963 C 241.410 248.459,239.270 250.850,237.395 251.899 C 236.962 252.141,236.721 252.454,236.860 252.593 C 237.475 253.209,241.802 248.526,241.242 247.850 C 240.427 246.869,240.073 247.026,236.480 249.964 M234.400 254.238 C 232.213 255.975,231.961 256.236,233.000 255.682 C 233.902 255.201,236.708 252.839,236.400 252.820 C 236.290 252.813,235.390 253.451,234.400 254.238 M231.280 254.080 C 230.698 254.662,230.658 255.465,231.195 255.797 C 231.423 255.938,231.489 255.776,231.351 255.416 C 231.219 255.071,231.333 254.522,231.604 254.195 C 232.195 253.483,231.960 253.400,231.280 254.080 M220.894 261.838 L 219.400 263.276 221.080 261.987 C 222.068 261.229,223.015 260.797,223.380 260.937 C 223.721 261.068,224.000 261.001,224.000 260.787 C 224.000 259.915,222.293 260.492,220.894 261.838 M168.530 263.500 C 177.951 263.560,193.251 263.560,202.530 263.500 C 211.808 263.440,204.100 263.391,185.400 263.391 C 166.700 263.391,159.108 263.440,168.530 263.500 M257.346 271.400 C 257.347 273.600,257.414 274.449,257.495 273.287 C 257.576 272.124,257.576 270.324,257.493 269.287 C 257.411 268.249,257.345 269.200,257.346 271.400 M119.309 282.000 C 119.309 282.990,119.387 283.395,119.482 282.900 C 119.578 282.405,119.578 281.595,119.482 281.100 C 119.387 280.605,119.309 281.010,119.309 282.000 M148.300 300.297 C 149.895 300.373,152.505 300.373,154.100 300.297 C 155.695 300.221,154.390 300.159,151.200 300.159 C 148.010 300.159,146.705 300.221,148.300 300.297 M220.480 300.298 C 222.394 300.371,225.634 300.371,227.680 300.298 C 229.726 300.226,228.160 300.166,224.200 300.165 C 220.240 300.165,218.566 300.224,220.480 300.298 M136.566 330.800 C 136.566 334.870,136.625 336.535,136.698 334.500 C 136.771 332.465,136.771 329.135,136.698 327.100 C 136.625 325.065,136.566 326.730,136.566 330.800 M239.767 331.000 C 239.767 335.180,239.826 336.836,239.898 334.679 C 239.971 332.523,239.970 329.103,239.898 327.079 C 239.825 325.056,239.766 326.820,239.767 331.000 M182.100 327.899 C 186.005 327.965,192.395 327.965,196.300 327.899 C 200.205 327.834,197.010 327.780,189.200 327.780 C 181.390 327.780,178.195 327.834,182.100 327.899 M210.148 332.000 C 210.148 334.310,210.214 335.255,210.295 334.100 C 210.376 332.945,210.376 331.055,210.295 329.900 C 210.214 328.745,210.148 329.690,210.148 332.000 M166.153 333.000 C 166.153 335.640,166.218 336.668,166.297 335.284 C 166.375 333.901,166.374 331.741,166.295 330.484 C 166.216 329.228,166.152 330.360,166.153 333.000 M184.146 334.196 C 184.009 334.554,184.092 335.602,184.330 336.524 L 184.764 338.200 184.563 336.335 C 184.334 334.216,184.968 333.410,185.897 334.639 C 186.458 335.382,186.468 335.381,186.332 334.600 C 186.155 333.589,184.497 333.282,184.146 334.196 M186.480 337.200 C 186.480 337.750,186.624 338.650,186.800 339.200 L 187.120 340.200 187.120 339.200 C 187.120 338.650,186.976 337.750,186.800 337.200 L 186.480 336.200 186.480 337.200 M184.834 339.800 C 184.822 340.240,184.987 340.870,185.200 341.200 C 185.714 341.995,185.714 340.996,185.200 339.800 L 184.856 339.000 184.834 339.800 M187.212 341.200 C 187.212 341.530,187.387 342.070,187.600 342.400 C 187.945 342.933,187.988 342.933,187.988 342.400 C 187.988 342.070,187.813 341.530,187.600 341.200 C 187.255 340.667,187.212 340.667,187.212 341.200 M185.656 342.800 C 185.656 343.130,185.811 343.760,186.000 344.200 C 186.217 344.704,186.344 344.778,186.344 344.400 C 186.344 344.070,186.189 343.440,186.000 343.000 C 185.783 342.496,185.656 342.422,185.656 342.800 M188.095 344.200 C 188.227 345.441,187.651 346.140,186.964 345.570 C 186.623 345.287,186.400 345.263,186.400 345.508 C 186.400 346.230,187.721 346.450,188.340 345.832 C 188.818 345.353,188.845 345.051,188.474 344.317 C 188.064 343.508,188.020 343.494,188.095 344.200 M190.806 354.592 C 190.344 355.149,191.948 358.800,192.655 358.800 C 192.777 358.800,192.384 357.961,191.783 356.935 C 190.739 355.153,190.723 355.046,191.421 354.535 C 191.824 354.241,191.961 354.000,191.725 354.000 C 191.490 354.000,191.077 354.267,190.806 354.592 M194.055 361.039 C 194.851 362.264,197.227 364.908,197.384 364.742 C 197.457 364.664,196.616 363.610,195.514 362.400 C 194.412 361.190,193.755 360.577,194.055 361.039 M198.131 362.773 C 198.608 363.491,198.663 363.883,198.340 364.273 C 198.061 364.609,198.049 364.800,198.308 364.800 C 199.187 364.800,199.218 363.441,198.358 362.627 L 197.484 361.800 198.131 362.773 M336.800 364.388 C 335.016 364.597,335.563 364.679,339.701 364.823 C 344.517 364.990,345.935 364.798,343.900 364.252 C 342.844 363.969,339.897 364.025,336.800 364.388 M354.100 364.665 C 353.825 364.776,353.613 365.257,353.628 365.733 C 353.655 366.568,353.668 366.570,353.967 365.800 C 354.242 365.093,354.761 364.974,358.439 364.778 L 362.600 364.557 358.600 364.510 C 356.400 364.484,354.375 364.554,354.100 364.665 M332.122 365.458 C 331.494 367.095,333.715 367.444,340.800 366.822 C 344.005 366.541,343.860 366.520,338.253 366.462 C 332.518 366.402,332.314 366.372,332.516 365.600 C 332.768 364.637,332.478 364.532,332.122 365.458 M318.800 365.427 C 320.163 365.732,323.200 365.784,323.200 365.503 C 323.200 365.336,322.075 365.221,320.700 365.246 C 319.325 365.272,318.470 365.353,318.800 365.427 M313.000 365.797 C 312.780 365.870,312.105 366.039,311.500 366.173 C 310.688 366.352,310.407 366.649,310.428 367.308 C 310.455 368.155,310.472 368.160,310.768 367.400 C 311.003 366.794,311.701 366.490,313.639 366.149 C 315.408 365.837,315.767 365.692,314.800 365.680 C 314.030 365.671,313.220 365.723,313.000 365.797 M375.466 365.900 C 375.366 366.065,376.570 366.228,378.142 366.262 C 380.745 366.318,380.839 366.294,379.200 365.991 C 376.851 365.558,375.690 365.530,375.466 365.900 M356.200 366.830 C 358.859 367.229,365.905 367.279,366.133 366.900 C 366.233 366.735,363.588 366.584,360.257 366.565 C 356.174 366.541,354.852 366.627,356.200 366.830 M383.800 366.800 C 384.460 366.968,385.606 367.127,386.347 367.153 C 387.487 367.193,387.661 367.323,387.484 368.001 C 387.369 368.441,387.438 368.700,387.637 368.577 C 389.099 367.673,387.212 366.381,384.526 366.447 C 382.817 366.489,382.735 366.529,383.800 366.800 M317.600 367.600 L 315.800 367.880 317.400 367.910 C 318.280 367.927,319.810 367.797,320.800 367.620 L 322.600 367.300 321.000 367.310 C 320.120 367.316,318.590 367.446,317.600 367.600 M300.424 367.827 C 302.488 368.210,301.785 369.326,299.195 369.775 C 297.935 369.994,297.370 370.219,297.869 370.302 C 299.653 370.601,302.061 369.636,301.925 368.678 C 301.829 368.006,301.495 367.777,300.500 367.700 L 299.200 367.600 300.424 367.827 M295.200 368.400 L 294.200 368.720 295.200 368.720 C 295.750 368.720,296.650 368.576,297.200 368.400 L 298.200 368.080 297.200 368.080 C 296.650 368.080,295.750 368.224,295.200 368.400 M311.905 368.283 C 312.402 368.379,313.122 368.375,313.505 368.275 C 313.887 368.175,313.480 368.096,312.600 368.101 C 311.720 368.105,311.407 368.187,311.905 368.283 M380.400 368.420 C 382.950 368.874,385.221 368.836,383.000 368.377 C 382.120 368.195,380.770 368.058,380.000 368.073 C 378.695 368.098,378.722 368.122,380.400 368.420 M397.505 368.683 C 398.002 368.779,398.722 368.775,399.105 368.675 C 399.487 368.575,399.080 368.496,398.200 368.501 C 397.320 368.505,397.007 368.587,397.505 368.683 M290.491 369.216 C 288.548 369.996,289.047 371.635,291.200 371.547 C 292.100 371.509,292.079 371.480,291.000 371.249 C 289.294 370.884,289.497 369.917,291.400 369.344 C 292.280 369.078,292.640 368.859,292.200 368.856 C 291.760 368.853,290.991 369.015,290.491 369.216 M205.333 370.231 C 205.195 370.590,205.407 371.151,205.823 371.531 C 206.511 372.159,206.524 372.158,206.033 371.505 C 205.746 371.123,205.615 370.538,205.743 370.205 C 205.870 369.872,205.885 369.600,205.775 369.600 C 205.665 369.600,205.466 369.884,205.333 370.231 M293.600 370.800 L 292.600 371.120 293.600 371.132 C 294.150 371.138,294.960 370.989,295.400 370.800 L 296.200 370.456 295.400 370.468 C 294.960 370.474,294.150 370.624,293.600 370.800 M398.400 370.800 C 398.730 371.013,399.270 371.188,399.600 371.188 C 400.133 371.188,400.133 371.145,399.600 370.800 C 399.270 370.587,398.730 370.412,398.400 370.412 C 397.867 370.412,397.867 370.455,398.400 370.800 M277.800 371.632 C 277.206 371.912,277.387 371.951,278.505 371.785 C 280.125 371.545,281.097 372.513,279.958 373.234 C 279.541 373.499,279.529 373.589,279.913 373.594 C 280.665 373.603,280.966 372.482,280.396 371.795 C 279.842 371.128,278.987 371.074,277.800 371.632 M206.800 372.190 C 206.800 372.294,207.385 372.665,208.100 373.014 L 209.400 373.648 208.400 372.833 C 207.437 372.048,206.800 371.792,206.800 372.190 M274.200 372.400 L 273.400 372.744 274.200 372.744 C 274.640 372.744,275.360 372.589,275.800 372.400 L 276.600 372.056 275.800 372.056 C 275.360 372.056,274.640 372.211,274.200 372.400 M270.200 373.200 L 269.400 373.544 270.200 373.544 C 270.640 373.544,271.360 373.389,271.800 373.200 L 272.600 372.856 271.800 372.856 C 271.360 372.856,270.640 373.011,270.200 373.200 M214.433 373.721 C 215.574 374.549,216.800 375.146,216.800 374.873 C 216.800 374.684,216.342 374.320,215.781 374.064 C 214.847 373.638,214.035 373.432,214.433 373.721 M268.134 374.227 C 267.785 375.138,268.532 375.688,269.851 375.491 C 270.944 375.328,270.934 375.317,269.653 375.260 C 268.516 375.209,268.339 375.076,268.516 374.400 C 268.763 373.454,268.480 373.325,268.134 374.227 M276.200 374.000 L 275.400 374.344 276.200 374.325 C 276.640 374.314,277.540 374.168,278.200 374.000 L 279.400 373.695 278.200 373.675 C 277.540 373.665,276.640 373.811,276.200 374.000 M272.200 374.800 L 271.400 375.144 272.200 375.144 C 272.640 375.144,273.360 374.989,273.800 374.800 L 274.600 374.456 273.800 374.456 C 273.360 374.456,272.640 374.611,272.200 374.800 M257.924 375.891 C 260.083 376.157,259.440 377.300,256.797 377.893 L 254.600 378.386 256.541 378.238 C 259.662 377.999,260.986 375.514,257.913 375.664 L 256.600 375.728 257.924 375.891 M252.600 376.400 C 251.530 376.672,251.508 376.705,252.400 376.705 C 252.950 376.705,253.940 376.568,254.600 376.400 C 255.670 376.128,255.692 376.095,254.800 376.095 C 254.250 376.095,253.260 376.232,252.600 376.400 M225.879 377.076 C 225.771 377.254,226.875 377.457,228.334 377.527 C 229.793 377.596,230.900 377.574,230.793 377.477 C 230.399 377.117,226.070 376.764,225.879 377.076 M247.204 377.395 C 246.634 378.082,246.935 379.203,247.687 379.194 C 248.071 379.189,248.059 379.099,247.642 378.834 C 246.865 378.343,247.363 377.298,248.476 377.085 C 249.334 376.922,249.339 376.905,248.549 376.854 C 248.081 376.825,247.476 377.068,247.204 377.395 M236.000 377.960 C 237.227 378.124,237.800 378.391,237.800 378.800 C 237.800 379.302,237.049 379.390,233.200 379.340 C 229.498 379.292,229.030 379.342,230.800 379.600 C 234.552 380.147,237.447 380.066,238.000 379.400 C 238.817 378.416,237.797 377.589,235.851 377.660 L 234.200 377.720 236.000 377.960 M249.600 378.800 L 248.600 379.120 249.600 379.113 C 250.150 379.109,251.140 378.968,251.800 378.800 L 253.000 378.495 251.800 378.487 C 251.140 378.483,250.150 378.624,249.600 378.800 " stroke="none" fill="#7c7c84" fill-rule="evenodd"></path></g></svg>